<?xml version="1.0" standalone="no"?>
<!DOCTYPE svg PUBLIC "-//W3C//DTD SVG 1.1//EN" "http://www.w3.org/Graphics/SVG/1.1/DTD/svg11.dtd" >
<svg xmlns="http://www.w3.org/2000/svg" xmlns:xlink="http://www.w3.org/1999/xlink" version="1.1">
<metadata></metadata>
<defs>
<font id="italian_plate_no2_expandedBd" horiz-adv-x="1175" >
<font-face units-per-em="2048" ascent="1536" descent="-512" />
<missing-glyph horiz-adv-x="368" />
<glyph unicode="&#xfb01;" horiz-adv-x="1075" d="M16 803v223h144v84q0 163 85.5 231t280.5 68q124 0 269 -29v-200q-167 22 -248 22q-68 0 -98.5 -30t-30.5 -97v-49h549v-1026h-260v803h-289v-803h-258v803h-144z" />
<glyph unicode="&#xfb02;" horiz-adv-x="1075" d="M16 803v223h144v84q0 156 74.5 219.5t238.5 63.5h127v-199h-59q-67 0 -95 -27t-28 -92v-49h180v-223h-180v-803h-258v803h-144zM707 0v1393h260v-1393h-260z" />
<glyph unicode="&#xfb03;" horiz-adv-x="1609" d="M16 801v223h144v86q0 162 77.5 222.5t256.5 60.5h106v-199h-59q-67 0 -95 -27t-28 -92v-51h274v86q0 163 86.5 231t280.5 68q125 0 270 -29v-200q-167 22 -248 22q-69 0 -99 -29.5t-30 -97.5v-51h547v-1024h-258v801h-289v-801h-260v801h-274v-801h-258v801h-144z" />
<glyph unicode="&#xfb04;" horiz-adv-x="1609" d="M16 801v223h144v86q0 162 77.5 222.5t256.5 60.5h106v-199h-59q-67 0 -95 -27t-28 -92v-51h274v86q0 156 75 219.5t239 63.5h129v-199h-62q-66 0 -93.5 -27t-27.5 -92v-51h178v-223h-178v-801h-260v801h-274v-801h-258v801h-144zM1241 0v1393h258v-1393h-258z" />
<glyph horiz-adv-x="0" />
<glyph horiz-adv-x="0" />
<glyph horiz-adv-x="682" />
<glyph unicode="&#xd;" horiz-adv-x="0" />
<glyph unicode=" "  horiz-adv-x="368" />
<glyph unicode="&#x09;" horiz-adv-x="368" />
<glyph unicode="&#xa0;" horiz-adv-x="368" />
<glyph unicode="!" horiz-adv-x="503" d="M98 137q0 65 44.5 110.5t107.5 45.5q64 0 110 -45.5t46 -110.5q0 -63 -45.5 -107t-110.5 -44q-63 0 -107.5 44t-44.5 107zM115 1393h278l-41 -969h-196z" />
<glyph unicode="&#x22;" horiz-adv-x="714" d="M53 1393h262l-32 -469h-197zM401 1393h263l-33 -469h-197z" />
<glyph unicode="#" horiz-adv-x="1116" d="M78 383v164h151v293h-151v166h151v387h166v-387h328v387h164v-387h149v-166h-149v-293h149v-164h-149v-383h-164v383h-328v-383h-166v383h-151zM395 547h328v293h-328v-293z" />
<glyph unicode="$" horiz-adv-x="1220" d="M31 434h258q23 -102 110 -164.5t222 -62.5q125 0 214 49.5t89 140.5q0 38 -12 67t-39.5 50t-56.5 35.5t-80.5 26t-92 18.5t-108.5 16q-89 12 -157 28t-134 44.5t-108.5 67.5t-68.5 98t-26 135q0 178 135 292.5t359 129.5v158h198v-166q187 -31 304.5 -144t140.5 -290 h-254q-30 107 -116 165t-220 58q-124 0 -203.5 -44.5t-79.5 -119.5q0 -44 23 -75t72.5 -53t108.5 -35.5t150 -27.5q124 -17 214 -43t165 -71.5t113.5 -118t38.5 -172.5q0 -187 -131.5 -299t-341.5 -135v-162h-199v158q-98 10 -180.5 41t-149 84.5t-108 135.5t-49.5 185z" />
<glyph unicode="%" horiz-adv-x="1552" d="M49 1063q0 144 99.5 245t244.5 101q144 0 245 -101.5t101 -244.5q0 -146 -100.5 -245t-245.5 -99q-146 0 -245 99t-99 245zM233 1063q0 -67 46.5 -115.5t113.5 -48.5q66 0 115 49t49 115t-49 116t-115 50q-67 0 -113.5 -49.5t-46.5 -116.5zM309 -12l725 1413h195 l-723 -1413h-197zM813 328q0 144 99.5 245t244.5 101q144 0 245 -101.5t101 -244.5q0 -146 -100.5 -245t-245.5 -99q-146 0 -245 99t-99 245zM997 328q0 -67 46.5 -115.5t113.5 -48.5q66 0 114 49t48 115t-48 116t-114 50q-67 0 -113.5 -49.5t-46.5 -116.5z" />
<glyph unicode="&#x26;" horiz-adv-x="1353" d="M37 362q0 73 25 133t72.5 105.5t102 78.5t128.5 64q-68 81 -101 149t-33 146q0 153 115.5 262t306.5 109q94 0 172 -29.5t128.5 -79t78 -113.5t27.5 -134q0 -68 -26 -123.5t-77.5 -98t-104 -71.5t-130.5 -62l209 -233q87 137 153 258h250q-106 -227 -252 -432l260 -291 h-194q-78 0 -115 6l-117 125q-96 -70 -203.5 -108.5t-207.5 -38.5q-133 0 -237 41.5t-167 128.5t-63 208zM295 387q0 -78 65.5 -128t169.5 -50q121 0 238 88l-279 305q-194 -82 -194 -215zM481 1044q0 -52 28 -98t89 -112q227 88 227 210q0 62 -50.5 103t-123.5 41 q-74 0 -122 -42.5t-48 -101.5z" />
<glyph unicode="'" horiz-adv-x="368" d="M53 1393h262l-32 -469h-197z" />
<glyph unicode="(" horiz-adv-x="679" d="M154 53v1026q0 235 88.5 333.5t292.5 98.5h71v-178h-59q-93 0 -126.5 -41t-33.5 -157v-1135q0 -116 33.5 -157.5t126.5 -41.5h59v-178h-71q-204 0 -292.5 98t-88.5 332z" />
<glyph unicode=")" horiz-adv-x="679" d="M74 -199h59q93 0 126.5 41.5t33.5 157.5v1135q0 116 -33.5 157t-126.5 41h-59v178h71q204 0 292.5 -98.5t88.5 -333.5v-1026q0 -234 -88.5 -332t-292.5 -98h-71v178z" />
<glyph unicode="*" horiz-adv-x="933" d="M49 938v154h285l-141 245l133 80l141 -250l143 250l133 -80l-143 -245h287v-154h-287l143 -246l-133 -80l-143 248l-141 -248l-133 80l141 246h-285z" />
<glyph unicode="+" horiz-adv-x="942" d="M96 436v197h273v317h202v-317h275v-197h-275v-317h-202v317h-273z" />
<glyph unicode="," horiz-adv-x="413" d="M23 -250l75 526h264l-141 -526h-198z" />
<glyph unicode="-" horiz-adv-x="671" d="M68 436v195h538v-195h-538z" />
<glyph unicode="." horiz-adv-x="413" d="M53 137q0 65 44.5 110.5t107.5 45.5q64 0 109.5 -45.5t45.5 -110.5q0 -63 -45 -107t-110 -44q-63 0 -107.5 44t-44.5 107z" />
<glyph unicode="/" horiz-adv-x="860" d="M0 -12l664 1413h196l-661 -1413h-199z" />
<glyph unicode="0" d="M61 512v367q0 149 67.5 270t188.5 190.5t271 69.5q149 0 269.5 -69.5t188.5 -190.5t68 -270v-367q0 -226 -149.5 -377t-376.5 -151q-150 0 -271 69t-188.5 189.5t-67.5 269.5zM322 504q0 -127 74 -210t192 -83q117 0 190.5 83t73.5 210v383q0 127 -74 210t-190 83 q-118 0 -192 -83t-74 -210v-383z" />
<glyph unicode="1" d="M197 969v174l495 250h168v-1393h-258v1092z" />
<glyph unicode="2" d="M74 913q0 104 30 192.5t90 157t159 107.5t227 39q226 0 363.5 -113.5t137.5 -308.5q0 -217 -186 -381l-420 -373h617v-233h-1006v193l543 489q182 164 182 295q0 90 -69.5 144.5t-176.5 54.5q-123 0 -180 -74t-57 -189h-254z" />
<glyph unicode="3" d="M63 449h256q4 -118 74 -181t182 -63q120 0 191.5 57t71.5 176q0 101 -73.5 161t-189.5 60h-208v193l338 305h-639v236h983v-207l-351 -316q65 -10 122 -30.5t108.5 -55t88 -81.5t58 -113t21.5 -146q0 -147 -73.5 -253.5t-192.5 -157.5t-267 -51q-106 0 -196 29.5t-157 87 t-106 147t-41 203.5z" />
<glyph unicode="4" d="M51 266v199l537 928h295l-553 -912h370l33 332h217v-332h168v-215h-168v-266h-248v266h-651z" />
<glyph unicode="5" d="M90 449h254q3 -116 72 -179t182 -63t180.5 62t67.5 161q0 107 -75 165t-196 58h-469v740h965v-236h-725v-276h248q235 0 371.5 -117.5t136.5 -321.5q0 -208 -140 -334t-374 -126q-220 0 -357.5 119.5t-140.5 347.5z" />
<glyph unicode="6" d="M98 453v456q0 239 135 369.5t371 130.5q226 0 356.5 -108t133.5 -322h-244q-4 100 -70 153.5t-180 53.5q-111 0 -180.5 -59.5t-69.5 -176.5v-137q122 88 264 88q131 0 239.5 -50.5t176.5 -154.5t68 -243q0 -141 -68 -249t-181 -164t-251 -56q-137 0 -250 56t-181.5 164.5 t-68.5 248.5zM354 446q0 -111 72 -174t172 -63t173 63t73 174t-73.5 175.5t-172.5 64.5q-100 0 -172 -64.5t-72 -175.5z" />
<glyph unicode="7" d="M68 1157v236h1005v-191l-563 -1202h-305l588 1157h-725z" />
<glyph unicode="8" d="M39 399q0 117 67 201t179 135q-96 48 -151.5 123t-55.5 170q0 170 132 275.5t376 105.5t376 -105.5t132 -275.5q0 -95 -55.5 -169t-151.5 -122q113 -53 179.5 -138.5t66.5 -199.5q0 -188 -149 -301.5t-398 -113.5q-247 0 -397 113.5t-150 301.5zM299 418 q0 -101 78.5 -158t208.5 -57t209 57t79 158q0 102 -75.5 157.5t-212.5 55.5q-136 0 -211.5 -55.5t-75.5 -157.5zM328 1014q0 -77 68 -127.5t190 -50.5q123 0 190.5 50.5t67.5 127.5q0 75 -66.5 123.5t-191.5 48.5t-191.5 -48.5t-66.5 -123.5z" />
<glyph unicode="9" d="M66 934q0 141 68 250.5t181.5 167t249.5 57.5q211 0 355.5 -130t144.5 -341v-453q0 -232 -136.5 -366.5t-369.5 -134.5q-220 0 -350.5 110t-136.5 320h241q7 -101 73 -155t179 -54q108 0 178 62t70 177v131q-115 -83 -254 -83q-102 0 -190.5 29t-156.5 83t-107 139.5 t-39 190.5zM322 946q0 -111 72 -176t171 -65q101 0 172.5 64.5t71.5 176.5t-71.5 175t-172.5 63q-99 0 -171 -63.5t-72 -174.5z" />
<glyph unicode=":" horiz-adv-x="413" d="M53 137q0 65 44.5 110.5t107.5 45.5q64 0 109.5 -45.5t45.5 -110.5q0 -63 -45 -107t-110 -44q-63 0 -107.5 44t-44.5 107zM53 840q0 63 44.5 109t107.5 46q64 0 109.5 -46t45.5 -109t-45.5 -108.5t-109.5 -45.5q-63 0 -107.5 45.5t-44.5 108.5z" />
<glyph unicode=";" horiz-adv-x="413" d="M23 -250l77 526h262l-141 -526h-198zM53 840q0 63 44.5 109t107.5 46q64 0 109.5 -46t45.5 -109t-45.5 -108.5t-109.5 -45.5q-63 0 -107.5 45.5t-44.5 108.5z" />
<glyph unicode="&#x3c;" horiz-adv-x="942" d="M96 430v209l750 412v-240l-539 -272l539 -283v-242z" />
<glyph unicode="=" horiz-adv-x="942" d="M96 252v197h750v-197h-750zM96 621v196h750v-196h-750z" />
<glyph unicode="&#x3e;" horiz-adv-x="942" d="M96 14v242l537 283l-537 272v240l750 -412v-209z" />
<glyph unicode="?" horiz-adv-x="915" d="M20 967v61q0 166 126.5 273.5t316.5 107.5q185 0 303.5 -98.5t118.5 -261.5q0 -77 -33 -150t-80 -128.5t-94 -106t-80 -102.5t-33 -99v-39h-239v47q0 72 31.5 140t76 120t89.5 100t76.5 101t31.5 104q0 64 -50 107t-128 43q-81 0 -132 -47t-51 -113v-59h-250zM295 137 q0 65 45 110.5t109 45.5q63 0 108 -46t45 -110q0 -63 -45 -107t-108 -44q-64 0 -109 44t-45 107z" />
<glyph unicode="@" horiz-adv-x="1536" d="M70 496q0 158 55.5 294.5t151 231t225.5 148t276 53.5q203 0 363 -91t247 -247t87 -348q0 -197 -93.5 -327t-248.5 -130q-70 0 -124.5 27t-72.5 73q-78 -114 -221 -114q-130 0 -206.5 84.5t-76.5 238.5v232q0 147 74 237t201 90q119 0 194 -86v70h199v-551 q0 -87 18.5 -123.5t57.5 -36.5q66 0 101.5 82.5t35.5 214.5q0 259 -142.5 415.5t-379.5 156.5q-162 0 -286 -76t-189.5 -207t-65.5 -297q0 -123 37.5 -229.5t105 -184t167 -122t218.5 -44.5q160 0 297 78l68 -110q-179 -101 -375 -101q-201 0 -360 88t-248.5 248t-89.5 363z M635 395q0 -78 33 -120t96 -42q131 0 131 181v182q0 90 -30.5 134t-98.5 44q-63 0 -97 -42.5t-34 -121.5v-215z" />
<glyph unicode="A" horiz-adv-x="1402" d="M-14 0l600 1393h243l586 -1393h-289l-112 281h-635l-115 -281h-278zM459 485h475l-232 576h-6z" />
<glyph unicode="B" horiz-adv-x="1323" d="M123 0v1393h698q186 0 311 -107.5t125 -275.5q0 -96 -49.5 -173t-124.5 -124q82 -47 136.5 -127t54.5 -180q0 -171 -128.5 -288.5t-326.5 -117.5h-696zM391 225h404q86 0 146 55.5t60 137.5q0 73 -55.5 128.5t-146.5 55.5h-408v-377zM391 813h408q84 0 137 53t53 129 q0 79 -55 126.5t-146 47.5h-397v-356z" />
<glyph unicode="C" horiz-adv-x="1517" d="M74 692q0 202 98.5 367t265.5 257.5t367 92.5q231 0 415.5 -124t262.5 -329h-307q-59 97 -157 152t-216 55q-189 0 -319 -134.5t-130 -332.5q0 -200 130 -333.5t319 -133.5q120 0 219 56.5t160 154.5h305q-75 -207 -261.5 -331.5t-424.5 -124.5q-203 0 -369 91 t-262 253.5t-96 363.5z" />
<glyph unicode="D" horiz-adv-x="1507" d="M123 0v1393h579q151 0 285.5 -52t232.5 -143.5t155 -222.5t57 -283q0 -200 -96 -359t-262.5 -246t-371.5 -87h-579zM393 231h307q193 0 322 132.5t129 332.5q0 199 -129 331t-322 132h-307v-928z" />
<glyph unicode="E" horiz-adv-x="1185" d="M123 0v1393h1030v-234h-760v-340h551v-231h-551v-355h760v-233h-1030z" />
<glyph unicode="F" horiz-adv-x="1171" d="M123 0v1393h1020v-234h-750v-340h623v-231h-623v-588h-270z" />
<glyph unicode="G" horiz-adv-x="1607" d="M74 692q0 202 98 367t264.5 257.5t366.5 92.5q231 0 417.5 -124t264.5 -329h-303q-60 97 -160 152t-219 55q-189 0 -319 -134.5t-130 -332.5q0 -200 130 -333.5t319 -133.5q153 0 268.5 77.5t159.5 209.5h-426v215h727q0 -119 -33 -230.5t-96.5 -205t-150.5 -163.5 t-203 -109t-246 -39q-203 0 -369.5 91t-263 254t-96.5 363z" />
<glyph unicode="H" horiz-adv-x="1406" d="M123 0v1393h270v-570h621v570h270v-1393h-270v590h-621v-590h-270z" />
<glyph unicode="I" horiz-adv-x="520" d="M125 0v1393h270v-1393h-270z" />
<glyph unicode="J" horiz-adv-x="997" d="M37 373v67h250v-69q0 -67 48 -111.5t114 -44.5q69 0 116 45.5t47 118.5v1014h271v-1014q0 -173 -123.5 -283t-302.5 -110q-187 0 -303.5 104.5t-116.5 282.5z" />
<glyph unicode="K" horiz-adv-x="1222" d="M123 0v1393h270v-582h8l496 582h313l-585 -660l620 -733h-334l-510 602h-8v-602h-270z" />
<glyph unicode="L" horiz-adv-x="1097" d="M123 0v1393h270v-1160h678v-233h-948z" />
<glyph unicode="M" horiz-adv-x="1572" d="M123 0v1393h254l407 -516h4l414 516h246v-1393h-266v983h-6l-369 -448h-43l-367 448h-8v-983h-266z" />
<glyph unicode="N" horiz-adv-x="1472" d="M123 0v1393h246l727 -973h6l-8 973h254v-1393h-244l-727 983h-8l10 -983h-256z" />
<glyph unicode="O" horiz-adv-x="1607" d="M74 692q0 202 98 367t264.5 257.5t366.5 92.5q199 0 366 -92.5t266 -257.5t99 -367q0 -150 -57 -282t-155 -225.5t-233 -147t-286 -53.5q-203 0 -369.5 91t-263 254t-96.5 363zM354 696q0 -200 130 -333.5t319 -133.5q190 0 320 133.5t130 333.5q0 199 -130 333t-320 134 q-189 0 -319 -134.5t-130 -332.5z" />
<glyph unicode="P" horiz-adv-x="1284" d="M125 0v1393h627q229 0 363 -115.5t134 -319.5q0 -205 -143 -326.5t-365 -121.5h-346v-510h-270zM395 731h340q106 0 173 64t67 161q0 90 -66.5 149.5t-171.5 59.5h-342v-434z" />
<glyph unicode="Q" horiz-adv-x="1607" d="M74 692q0 202 98 367t264.5 257.5t366.5 92.5q199 0 366 -92.5t266 -257.5t99 -367q0 -176 -82 -323.5t-221 -239.5l338 -39v-242l-856 138q-184 30 -328 123.5t-227.5 245t-83.5 337.5zM354 696q0 -200 130 -333.5t319 -133.5q190 0 320 133.5t130 333.5q0 199 -130 333 t-320 134q-189 0 -319 -134.5t-130 -332.5z" />
<glyph unicode="R" horiz-adv-x="1294" d="M125 0v1393h612q230 0 365 -112.5t135 -315.5q0 -145 -78.5 -249t-208.5 -153l328 -563h-307l-285 520h-291v-520h-270zM395 741h340q98 0 162 62.5t64 157.5q0 88 -62.5 146t-161.5 58h-342v-424z" />
<glyph unicode="S" horiz-adv-x="1220" d="M29 440h264q21 -100 108.5 -163.5t221.5 -63.5q129 0 212 49t83 137q0 43 -20 75.5t-50 52.5t-85.5 36.5t-103.5 25t-127 19.5q-89 12 -157 28t-134 44.5t-108 67.5t-68 98t-26 135q0 193 154 310.5t405 117.5q240 0 396.5 -122t181.5 -331h-263q-28 105 -113.5 164.5 t-215.5 59.5q-122 0 -198.5 -43t-76.5 -117q0 -34 16 -61t43 -45.5t73.5 -33t95.5 -24.5t120 -20q99 -14 175 -32.5t145.5 -50.5t114.5 -75t71.5 -106.5t26.5 -143.5q0 -143 -80 -245t-209.5 -150.5t-292.5 -48.5q-113 0 -211.5 27t-178.5 80.5t-130.5 143t-58.5 205.5z" />
<glyph unicode="T" horiz-adv-x="1232" d="M23 1159v234h1187v-234h-458v-1159h-271v1159h-458z" />
<glyph unicode="U" horiz-adv-x="1398" d="M109 618v775h270v-779q0 -173 87 -278t232 -105q147 0 234.5 105t87.5 278v779h268v-775q0 -297 -160.5 -465.5t-429.5 -168.5q-270 0 -429.5 168t-159.5 466z" />
<glyph unicode="V" horiz-adv-x="1331" d="M-4 1393h280l386 -1028h8l393 1028h272l-555 -1393h-243z" />
<glyph unicode="W" horiz-adv-x="1845" d="M10 1393h271l256 -959h8l293 959h182l280 -957h9l266 957h260l-399 -1393h-240l-272 911h-9l-278 -911h-242z" />
<glyph unicode="X" horiz-adv-x="1296" d="M-16 0l508 700l-500 693h303l356 -486l355 486h292l-499 -691l514 -702h-312l-362 494l-360 -494h-295z" />
<glyph unicode="Y" horiz-adv-x="1232" d="M-10 1393h284l344 -609l353 609h272l-471 -830q-22 -40 -22 -94v-469h-271v469q0 54 -22 94z" />
<glyph unicode="Z" horiz-adv-x="1132" d="M31 0v217l731 942h-719v234h1051v-213l-736 -947h744v-233h-1071z" />
<glyph unicode="[" horiz-adv-x="679" d="M154 -377v1888h450v-178h-219v-1532h219v-178h-450z" />
<glyph unicode="\" horiz-adv-x="860" d="M0 1401h197l663 -1413h-198z" />
<glyph unicode="]" horiz-adv-x="679" d="M74 -199h219v1532h-219v178h452v-1888h-452v178z" />
<glyph unicode="^" horiz-adv-x="477" d="M0 928l111 465h256l110 -465h-143l-96 325l-93 -325h-145z" />
<glyph unicode="_" horiz-adv-x="851" d="M0 -129h852v-195h-852v195z" />
<glyph unicode="`" horiz-adv-x="477" d="M-4 1393h278l84 -260h-235z" />
<glyph unicode="a" horiz-adv-x="1224" d="M51 512q0 148 66.5 270t181 191t252.5 69q193 0 317 -147v129h252v-1024h-252v133q-123 -149 -323 -149q-211 0 -352.5 150.5t-141.5 377.5zM309 512q0 -125 81 -209t198 -84t197.5 83t80.5 210t-80.5 210t-197.5 83t-198 -83.5t-81 -209.5z" />
<glyph unicode="b" horiz-adv-x="1224" d="M104 0v1393h261v-494q126 143 315 143q210 0 352 -151.5t142 -376.5q0 -148 -66.5 -270t-181 -191t-252.5 -69q-198 0 -318 149v-133h-252zM358 512q0 -125 81 -209t198 -84q116 0 197 84.5t81 208.5t-81 208.5t-197 84.5q-117 0 -198 -83.5t-81 -209.5z" />
<glyph unicode="c" horiz-adv-x="1140" d="M51 512q0 111 41.5 209.5t112.5 168.5t170 111t211 41q190 0 330.5 -109t183.5 -284h-266q-36 70 -102.5 112t-143.5 42q-115 0 -197 -84t-82 -207t82 -207t197 -84q81 0 147.5 43t100.5 117h266q-42 -178 -183.5 -287.5t-336.5 -109.5q-227 0 -379 151t-152 377z" />
<glyph unicode="d" horiz-adv-x="1224" d="M51 512q0 148 67 270t182 191t253 69q184 0 307 -139v490h260v-1393h-252v135q-125 -151 -321 -151q-136 0 -250 68.5t-180 190t-66 269.5zM309 512q0 -124 81.5 -208.5t197.5 -84.5t197 84t81 209q0 126 -80.5 209.5t-197.5 83.5q-116 0 -197.5 -84.5t-81.5 -208.5z" />
<glyph unicode="e" horiz-adv-x="1161" d="M51 510q0 152 69.5 274t191.5 190t272 68q228 0 377 -150.5t149 -381.5q0 -36 -6 -66h-785q13 -111 86 -174t179 -63q80 0 141.5 35t99.5 98h265q-46 -164 -183.5 -260t-328.5 -96q-232 0 -379.5 147t-147.5 379zM322 604h512q-13 98 -84.5 155.5t-169.5 57.5 q-97 0 -167.5 -56.5t-90.5 -156.5z" />
<glyph unicode="f" horiz-adv-x="649" d="M16 801v223h144v86q0 156 74.5 219.5t238.5 63.5h158v-199h-90q-67 0 -95 -27t-28 -92v-51h211v-223h-211v-801h-258v801h-144z" />
<glyph unicode="g" horiz-adv-x="1224" d="M51 522q0 148 67 267.5t182 186t253 66.5q185 0 309 -137v119h258v-983q0 -198 -111 -308t-311 -110h-206v225h159q114 0 161.5 46t47.5 155v92q-124 -137 -313 -137q-102 0 -193.5 39t-158 107t-105.5 164.5t-39 207.5zM309 512q0 -124 81.5 -208.5t197.5 -84.5t197 84 t81 209q0 126 -80.5 209.5t-197.5 83.5q-116 0 -197.5 -84.5t-81.5 -208.5z" />
<glyph unicode="h" horiz-adv-x="1095" d="M104 0v1393h261v-486q37 55 107 95t169 40q163 0 255.5 -96.5t92.5 -261.5v-684h-258v637q0 82 -49.5 128t-128.5 46q-81 0 -134.5 -47.5t-53.5 -124.5v-639h-261z" />
<glyph unicode="i" horiz-adv-x="477" d="M92 1298q0 59 44 103.5t104 44.5t103.5 -44.5t43.5 -103.5q0 -60 -43.5 -103.5t-103.5 -43.5t-104 43.5t-44 103.5zM109 0v1024h258v-1024h-258z" />
<glyph unicode="j" horiz-adv-x="462" d="M-33 -152h31q61 0 86 25.5t25 85.5v1065h258v-1096q0 -156 -74.5 -230.5t-231.5 -74.5h-94v225zM92 1298q0 59 44 103.5t104 44.5t103.5 -44.5t43.5 -103.5q0 -60 -43.5 -103.5t-103.5 -43.5t-104 43.5t-44 103.5z" />
<glyph unicode="k" horiz-adv-x="1060" d="M104 0v1393h254v-768h9l387 399h293l-390 -389l422 -635h-303l-295 467l-123 -115v-352h-254z" />
<glyph unicode="l" horiz-adv-x="481" d="M111 0v1393h258v-1393h-258z" />
<glyph unicode="m" horiz-adv-x="1671" d="M104 0v1024h252v-125q35 58 102 100.5t171 42.5q214 0 289 -165q6 6 28 30t36 37t42 34.5t54 33t64.5 21t80.5 9.5q164 0 254 -95t90 -261v-686h-260v639q0 83 -44 126.5t-120 43.5q-77 0 -127.5 -44.5t-50.5 -117.5v-647h-258v639q0 83 -45 126.5t-121 43.5 q-78 0 -127 -45.5t-49 -120.5v-643h-261z" />
<glyph unicode="n" horiz-adv-x="1095" d="M104 0v1024h252v-129q35 57 108 102t177 45q163 0 255.5 -96.5t92.5 -261.5v-684h-258v637q0 82 -49.5 128t-128.5 46q-81 0 -134.5 -47.5t-53.5 -124.5v-639h-261z" />
<glyph unicode="o" d="M51 512q0 148 70 269.5t193.5 191t273.5 69.5q149 0 272 -69t193.5 -191t70.5 -270q0 -225 -154 -376.5t-382 -151.5q-113 0 -212.5 40.5t-170.5 110.5t-112.5 168t-41.5 209zM309 512q0 -123 82 -207t197 -84t195.5 83.5t80.5 207.5t-80.5 207.5t-195.5 83.5t-197 -84 t-82 -207z" />
<glyph unicode="p" horiz-adv-x="1224" d="M104 -377v1401h252v-133q58 72 141 111.5t183 39.5q136 0 249.5 -68.5t179 -190t65.5 -269.5t-66.5 -270t-181 -191t-252.5 -69q-191 0 -309 137v-498h-261zM358 512q0 -125 81 -209t198 -84q116 0 197 84.5t81 208.5t-81 208.5t-197 84.5q-117 0 -198 -83.5t-81 -209.5z " />
<glyph unicode="q" horiz-adv-x="1224" d="M51 512q0 148 67 270t182 191t253 69q193 0 315 -145v127h252v-1401h-260v500q-123 -139 -313 -139q-136 0 -250 68.5t-180 190t-66 269.5zM309 512q0 -124 81.5 -208.5t197.5 -84.5t197 84t81 209q0 126 -80.5 209.5t-197.5 83.5q-116 0 -197.5 -84.5t-81.5 -208.5z" />
<glyph unicode="r" horiz-adv-x="708" d="M104 0v1024h252v-100q34 52 90.5 85t131.5 33q92 0 151 -49l-127 -225q-45 25 -88 25q-71 0 -110 -52.5t-39 -134.5v-606h-261z" />
<glyph unicode="s" horiz-adv-x="1054" d="M41 319h252q25 -74 84 -105.5t158 -31.5q101 0 159 31t58 86q0 37 -30 60.5t-79 33t-111.5 19t-128 16.5t-128 26.5t-111.5 47.5t-79 81.5t-30 127.5q0 150 125.5 240.5t345.5 90.5q120 0 217 -33t164.5 -108.5t79.5 -185.5h-244q-40 127 -233 127q-88 0 -141.5 -26.5 t-53.5 -78.5q0 -39 38 -62t99.5 -33t135 -18t147.5 -24t135.5 -44.5t99.5 -86.5t38 -143q0 -106 -64.5 -184.5t-174 -118t-247.5 -39.5q-95 0 -174.5 18t-146 56t-108 104.5t-52.5 156.5z" />
<glyph unicode="t" horiz-adv-x="618" d="M23 801v223h133v250h258v-250h161v-223h-161v-455q0 -66 23.5 -92.5t88.5 -26.5h52v-227h-134q-155 0 -221.5 70.5t-66.5 228.5v502h-133z" />
<glyph unicode="u" horiz-adv-x="1095" d="M104 338v686h261v-645q0 -82 48.5 -127t127.5 -45q81 0 135.5 46.5t54.5 121.5v649h258v-1024h-252v127q-32 -56 -104.5 -99.5t-177.5 -43.5q-165 0 -258 94.5t-93 259.5z" />
<glyph unicode="v" horiz-adv-x="1024" d="M-10 1024h266l250 -709h8l262 709h258l-403 -1024h-260z" />
<glyph unicode="w" horiz-adv-x="1568" d="M18 1024h269l190 -664h4l217 664h183l206 -670h3l198 670h262l-319 -1024h-238l-211 635h-6l-219 -635h-235z" />
<glyph unicode="x" horiz-adv-x="1050" d="M-27 0l404 514l-400 510h287l262 -330l260 330h275l-395 -506l411 -518h-295l-266 338l-264 -338h-279z" />
<glyph unicode="y" horiz-adv-x="1048" d="M-8 1024h266l272 -709l265 709h258l-381 -961q-79 -200 -108 -255q-57 -107 -136 -147q-77 -38 -213 -38h-76v225h84q58 0 101 34t57 108q2 12 2 25q0 26 -10 55z" />
<glyph unicode="z" horiz-adv-x="946" d="M41 0v215l539 586h-525v223h844v-211l-543 -588h555v-225h-870z" />
<glyph unicode="{" horiz-adv-x="679" d="M82 483v209h24q61 0 91 48t30 159v301q0 162 85.5 236.5t256.5 74.5h56v-178h-35q-63 0 -96 -33.5t-33 -111.5v-299q0 -119 -34.5 -185t-107.5 -112q72 -46 107 -114.5t35 -188.5v-322q0 -87 30 -126.5t97 -39.5h37v-178h-56q-171 0 -256.5 74.5t-85.5 236.5v345 q0 110 -30 157t-91 47h-24z" />
<glyph unicode="|" horiz-adv-x="473" d="M137 -367v1760h199v-1760h-199z" />
<glyph unicode="}" horiz-adv-x="679" d="M63 -199h43q121 0 121 166v322q0 120 35 188.5t107 114.5q-73 46 -107.5 112t-34.5 185v289q0 82 -31 118.5t-92 36.5h-41v178h56q171 0 255.5 -74t84.5 -237v-291q0 -118 30.5 -167.5t92.5 -49.5h24v-209h-24q-61 0 -92 -47t-31 -157v-345q0 -163 -84.5 -237t-255.5 -74 h-56v178z" />
<glyph unicode="~" horiz-adv-x="942" d="M102 496q24 63 77 109t120 46q48 0 189 -31.5t167 -31.5q62 0 101 71l84 -90q-26 -63 -79 -113t-120 -50q-44 0 -184.5 32.5t-173.5 32.5q-65 0 -97 -68z" />
<glyph unicode="&#xa1;" horiz-adv-x="503" d="M98 891q0 63 44.5 107t107.5 44q65 0 110.5 -44t45.5 -107q0 -65 -46 -110.5t-110 -45.5q-63 0 -107.5 45.5t-44.5 110.5zM115 -365l41 969h196l41 -969h-278z" />
<glyph unicode="&#xa2;" horiz-adv-x="1140" d="M51 705q0 200 122.5 344t315.5 176v168h199v-168q154 -28 264.5 -131t147.5 -252h-266q-36 69 -100.5 110t-145.5 41q-115 0 -195 -83t-80 -205t80 -205.5t195 -83.5q82 0 148 42.5t100 114.5h266q-37 -153 -147.5 -257t-266.5 -132v-184h-201v184q-193 31 -314.5 176 t-121.5 345z" />
<glyph unicode="&#xa3;" horiz-adv-x="1124" d="M53 594v223h187v178q0 198 117 306t339 108q243 0 406 -141l-123 -193q-42 28 -74 45t-87 33t-111 16q-211 0 -211 -202v-150h487v-223h-487q0 -164 -26 -246t-77 -119h694v-229h-1032v215q96 12 140.5 80t44.5 201v98h-187z" />
<glyph unicode="&#xa4;" horiz-adv-x="942" d="M63 432l95 92q-47 80 -47 181q0 108 55 190l-103 100l125 125l103 -102q83 47 178 47q97 0 178 -49l105 104l125 -125l-103 -102q55 -86 55 -188q0 -96 -47 -179l95 -94l-125 -125l-93 94q-82 -55 -190 -55q-107 0 -190 53l-91 -92zM283 702q0 -76 55.5 -132t132.5 -56 q76 0 131 55.5t55 132.5t-55 132t-131 55q-77 0 -132.5 -55.5t-55.5 -131.5z" />
<glyph unicode="&#xa5;" horiz-adv-x="1214" d="M10 1393h285l313 -609l322 609h272l-344 -641h211v-183h-305q-25 -70 -25 -120h330v-183h-330v-266h-270v266h-324v183h324q-3 58 -25 120h-299v183h203z" />
<glyph unicode="&#xa6;" horiz-adv-x="473" d="M135 -266v792h201v-792h-201zM135 756v770h201v-770h-201z" />
<glyph unicode="&#xa7;" horiz-adv-x="1153" d="M39 692q0 138 141 221q-94 68 -94 181q0 143 132 229t366 86q203 0 328.5 -81t131.5 -247h-241q-10 59 -73 94t-179 35q-205 0 -205 -94q0 -72 141 -96l312 -55q317 -56 317 -254q0 -134 -143 -222q96 -72 96 -186q0 -152 -133 -235.5t-367 -83.5q-100 0 -185 18t-155 56 t-111 104.5t-44 156.5h258q12 -135 256 -135q225 0 225 97q0 52 -94 73l-324 76q-50 12 -79 19t-72 20.5t-68 26.5t-54.5 32.5t-45 42t-26.5 53.5t-11 68zM295 741q0 -40 38.5 -65.5t127.5 -42.5l323 -62q33 13 53.5 38.5t20.5 52.5q0 33 -31 61t-92 41l-360 74 q-33 -9 -56.5 -36.5t-23.5 -60.5z" />
<glyph unicode="&#xa8;" horiz-adv-x="477" d="M-14 1266q0 46 34.5 79t81.5 33q46 0 79.5 -33t33.5 -79q0 -47 -33.5 -82t-79.5 -35q-47 0 -81.5 35t-34.5 82zM262 1266q0 46 33.5 79t79.5 33q47 0 82 -33t35 -79q0 -47 -35 -82t-82 -35q-46 0 -79.5 35t-33.5 82z" />
<glyph unicode="&#xa9;" horiz-adv-x="1507" d="M41 696q0 145 56.5 277t152 227.5t227.5 152t277 56.5q193 0 357 -95.5t259.5 -260t95.5 -357.5t-95.5 -357t-259.5 -259.5t-357 -95.5t-357.5 95.5t-260 259.5t-95.5 357zM186 696q0 -156 75.5 -288t206 -208.5t286.5 -76.5q117 0 222 45.5t180.5 122t120 182.5 t44.5 223q0 156 -75 288t-205.5 209t-286.5 77t-286.5 -77t-206 -209t-75.5 -288zM492 500v391q0 100 76.5 171t181.5 71q109 0 181.5 -67.5t72.5 -174.5v-51h-173v53q0 38 -23.5 62t-59.5 24q-34 0 -57 -25.5t-23 -60.5v-395q0 -35 24 -60.5t56 -25.5q35 0 58 26.5t23 63.5 v51h175v-45q0 -111 -75 -180.5t-184 -69.5q-105 0 -179 70t-74 172z" />
<glyph unicode="&#xaa;" horiz-adv-x="827" d="M41 1040q0 156 101.5 262.5t246.5 106.5q124 0 205 -84v68h190v-705h-190v70q-40 -38 -94.5 -61t-112.5 -23q-148 0 -247 104.5t-99 261.5zM74 467v149h710v-149h-710zM238 1040q0 -81 51.5 -134.5t124.5 -53.5q75 0 126.5 53t51.5 135t-51.5 135.5t-126.5 53.5 q-73 0 -124.5 -54t-51.5 -135z" />
<glyph unicode="&#xab;" horiz-adv-x="839" d="M29 551l164 367h221l-158 -363l154 -375h-220zM397 551l164 367h221l-157 -363l153 -375h-219z" />
<glyph unicode="&#xac;" horiz-adv-x="942" d="M96 436v197h750v-514h-205v317h-545z" />
<glyph unicode="&#xad;" horiz-adv-x="671" />
<glyph unicode="&#xae;" horiz-adv-x="1507" d="M41 696q0 145 56.5 277t152 227.5t227.5 152t277 56.5q193 0 357 -95.5t259.5 -260t95.5 -357.5t-95.5 -357t-259.5 -259.5t-357 -95.5t-357.5 95.5t-260 259.5t-95.5 357zM186 696q0 -156 75.5 -288t206 -208.5t286.5 -76.5q117 0 222 45.5t180.5 122t120 182.5 t44.5 223q0 156 -75 288t-205.5 209t-286.5 77t-286.5 -77t-206 -209t-75.5 -288zM487 274v842h304q108 0 177.5 -70.5t69.5 -175.5q0 -69 -33 -125.5t-96 -91.5l152 -379h-191l-129 344h-77v-344h-177zM664 764h100q38 0 65 28t27 74q0 42 -25.5 69.5t-66.5 27.5h-100v-199 z" />
<glyph unicode="&#xaf;" horiz-adv-x="477" d="M0 1167v166h477v-166h-477z" />
<glyph unicode="&#xb0;" horiz-adv-x="716" d="M63 1112q0 123 85 210t208 87q124 0 210.5 -87t86.5 -210q0 -124 -86 -208.5t-211 -84.5q-123 0 -208 84.5t-85 208.5zM223 1112q0 -57 38 -96t95 -39t98.5 39t41.5 96t-41.5 97t-98.5 40t-95 -40t-38 -97z" />
<glyph unicode="&#xb1;" horiz-adv-x="942" d="M96 0v197h750v-197h-750zM96 563v197h273v317h202v-317h275v-197h-275v-317h-202v317h-273z" />
<glyph unicode="&#xb2;" horiz-adv-x="608" d="M33 1147v35q0 96 71 157.5t195 61.5q123 0 191.5 -56t68.5 -147q0 -55 -24 -103t-70 -102l-174 -213h266v-153h-516v114l266 334q64 81 64 111q0 26 -21 41.5t-51 15.5t-52 -16.5t-22 -44.5v-35h-192z" />
<glyph unicode="&#xb3;" horiz-adv-x="608" d="M31 840v43h190v-54q0 -28 20 -45.5t48 -17.5q32 0 52.5 17t20.5 46v107q0 28 -17.5 45.5t-49.5 17.5h-121v113l133 125h-268v156h508v-127l-139 -140q69 -19 108 -68.5t39 -127.5v-90q0 -100 -74.5 -162t-191.5 -62q-116 0 -187 61.5t-71 162.5z" />
<glyph unicode="&#xb4;" horiz-adv-x="477" d="M119 1133l84 260h278l-127 -260h-235z" />
<glyph unicode="&#xb5;" horiz-adv-x="1095" d="M104 -362v1386h261v-653q0 -78 48.5 -121t127.5 -43q81 0 135.5 46.5t54.5 121.5v649h258v-1024h-252v127q-32 -54 -100 -93.5t-170 -39.5q-56 0 -102 14v-370h-261z" />
<glyph unicode="&#xb6;" horiz-adv-x="1099" d="M49 1083q0 126 89 218t214 92h619v-1770h-162v1626h-246v-1626h-160v1149h-51q-125 0 -214 92t-89 219z" />
<glyph unicode="&#xb7;" horiz-adv-x="413" d="M53 715q0 64 44.5 109.5t107.5 45.5q65 0 110 -45t45 -110q0 -63 -45.5 -107.5t-109.5 -44.5q-63 0 -107.5 44.5t-44.5 107.5z" />
<glyph unicode="&#xb8;" horiz-adv-x="477" d="M111 -57h198q129 -94 129 -187q0 -54 -45 -93.5t-151 -39.5q-57 0 -131 19v120q60 -6 63 -6q55 0 55 41q0 29 -33 69.5t-85 76.5z" />
<glyph unicode="&#xb9;" horiz-adv-x="608" d="M109 1155v117l172 121h141v-766h-197v528h-116z" />
<glyph unicode="&#xba;" horiz-adv-x="827" d="M41 1040q0 157 107 263t264 106q158 0 266 -106t108 -263q0 -155 -108 -260.5t-266 -105.5q-157 0 -264 105.5t-107 260.5zM66 467v149h696v-149h-696zM236 1040q0 -78 52 -132t124 -54q74 0 126 53.5t52 132.5t-52 133t-126 54q-72 0 -124 -54.5t-52 -132.5z" />
<glyph unicode="&#xbb;" horiz-adv-x="839" d="M35 918h223l162 -367l-160 -371h-221l156 375zM403 918h224l161 -367l-159 -371h-221l155 375z" />
<glyph unicode="&#xbc;" horiz-adv-x="1421" d="M109 1155v117l172 121h141v-766h-197v528h-116zM250 -12l733 1413h188l-731 -1413h-190zM842 121v121l217 524h207l-228 -502h88l37 127h148v-127h71v-143h-71v-121h-191v121h-278z" />
<glyph unicode="&#xbd;" horiz-adv-x="1421" d="M109 1155v117l172 121h141v-766h-197v528h-116zM250 -12l733 1413h188l-731 -1413h-190zM846 520v35q0 96 71 157.5t195 61.5q123 0 191.5 -56t68.5 -147q0 -55 -24 -102t-70 -102l-174 -213h266v-154h-516v115l266 334q24 30 34.5 44.5t20 33t9.5 32.5q0 26 -21 41.5 t-51 15.5t-52 -16.5t-22 -44.5v-35h-192z" />
<glyph unicode="&#xbe;" horiz-adv-x="1421" d="M31 840v43h190v-54q0 -28 20 -45.5t48 -17.5q32 0 52.5 17t20.5 46v107q0 28 -17.5 45.5t-49.5 17.5h-121v113l133 125h-268v156h508v-127l-139 -140q69 -19 108 -68.5t39 -127.5v-90q0 -100 -74.5 -162t-191.5 -62q-116 0 -187 61.5t-71 162.5zM250 -12l733 1413h188 l-731 -1413h-190zM842 121v121l217 524h207l-228 -502h88l37 127h148v-127h71v-143h-71v-121h-191v121h-278z" />
<glyph unicode="&#xbf;" horiz-adv-x="915" d="M43 -20q0 77 33 150t79.5 128t93.5 105.5t80 102.5t33 99v39h240v-47q0 -72 -31.5 -140t-76 -120t-89.5 -100t-76.5 -101t-31.5 -104q0 -64 50 -107t128 -43q81 0 131.5 46.5t50.5 113.5v59h250v-61q0 -166 -126 -273.5t-316 -107.5q-184 0 -303 99t-119 262zM326 891 q0 63 45 107t108 44q64 0 109 -44t45 -107q0 -65 -45 -110.5t-109 -45.5q-63 0 -108 46t-45 110z" />
<glyph unicode="&#xc0;" horiz-adv-x="1402" d="M-14 0l600 1393h243l586 -1393h-289l-112 281h-635l-115 -281h-278zM457 1714h278l84 -260h-235zM459 485h475l-232 576h-6z" />
<glyph unicode="&#xc1;" horiz-adv-x="1402" d="M-14 0l600 1393h243l586 -1393h-289l-112 281h-635l-115 -281h-278zM459 485h475l-232 576h-6zM580 1454l84 260h278l-127 -260h-235z" />
<glyph unicode="&#xc2;" horiz-adv-x="1402" d="M-14 0l600 1393h243l586 -1393h-289l-112 281h-635l-115 -281h-278zM459 485h475l-232 576h-6zM461 1454l110 260h256l111 -260h-143l-97 121l-92 -121h-145z" />
<glyph unicode="&#xc3;" horiz-adv-x="1402" d="M-14 0l600 1393h243l586 -1393h-289l-112 281h-635l-115 -281h-278zM444 1544q29 52 70.5 84.5t85.5 32.5q36 0 117 -28.5t100 -28.5q22 0 43.5 18t36.5 43l55 -94q-27 -52 -68 -87.5t-87 -35.5q-35 0 -114 29.5t-101 29.5q-23 0 -45 -17t-37 -42zM459 485h475l-232 576 h-6z" />
<glyph unicode="&#xc4;" horiz-adv-x="1402" d="M-14 0l600 1393h243l586 -1393h-289l-112 281h-635l-115 -281h-278zM446 1587q0 46 35 79.5t82 33.5q46 0 79.5 -33.5t33.5 -79.5q0 -47 -33.5 -82t-79.5 -35q-47 0 -82 35t-35 82zM459 485h475l-232 576h-6zM723 1587q0 46 33.5 79.5t79.5 33.5q47 0 81.5 -33.5 t34.5 -79.5q0 -47 -34.5 -82t-81.5 -35q-46 0 -79.5 35t-33.5 82z" />
<glyph unicode="&#xc5;" horiz-adv-x="1402" d="M-14 0l600 1393h243l586 -1393h-289l-112 281h-635l-115 -281h-278zM459 485h475l-232 576h-6zM516 1618q0 72 51 124t123 52q74 0 126 -52t52 -124q0 -74 -51.5 -125t-126.5 -51q-72 0 -123 51.5t-51 124.5zM621 1618q0 -32 20 -53t49 -21q31 0 52.5 21t21.5 53 q0 29 -21.5 50.5t-52.5 21.5q-29 0 -49 -21t-20 -51z" />
<glyph unicode="&#xc6;" horiz-adv-x="1857" d="M-23 0l633 1393h1215v-234h-678v-340h469v-231h-469v-355h678v-233h-948v360h-465l-164 -360h-271zM500 561h377v598h-105z" />
<glyph unicode="&#xc7;" horiz-adv-x="1517" d="M74 692q0 202 98.5 367t265.5 257.5t367 92.5q231 0 415.5 -124t262.5 -329h-307q-59 97 -157 152t-216 55q-189 0 -319 -134.5t-130 -332.5q0 -200 130 -333.5t319 -133.5q120 0 219 56.5t160 154.5h305q-75 -207 -261.5 -331.5t-424.5 -124.5q-203 0 -369 91 t-262 253.5t-96 363.5zM664 -57h198q129 -94 129 -187q0 -54 -45 -93.5t-151 -39.5q-57 0 -131 19v120q60 -6 63 -6q55 0 55 41q0 29 -33 69.5t-85 76.5z" />
<glyph unicode="&#xc8;" horiz-adv-x="1185" d="M123 0v1393h1030v-234h-760v-340h551v-231h-551v-355h760v-233h-1030zM383 1714h279l83 -260h-235z" />
<glyph unicode="&#xc9;" horiz-adv-x="1185" d="M123 0v1393h1030v-234h-760v-340h551v-231h-551v-355h760v-233h-1030zM506 1454l84 260h278l-127 -260h-235z" />
<glyph unicode="&#xca;" horiz-adv-x="1185" d="M123 0v1393h1030v-234h-760v-340h551v-231h-551v-355h760v-233h-1030zM387 1454l111 260h256l110 -260h-143l-96 121l-93 -121h-145z" />
<glyph unicode="&#xcb;" horiz-adv-x="1185" d="M123 0v1393h1030v-234h-760v-340h551v-231h-551v-355h760v-233h-1030zM373 1587q0 46 34.5 79.5t81.5 33.5q46 0 79.5 -33.5t33.5 -79.5q0 -47 -33.5 -82t-79.5 -35q-47 0 -81.5 35t-34.5 82zM649 1587q0 46 33.5 79.5t79.5 33.5q47 0 82 -33.5t35 -79.5q0 -47 -35 -82 t-82 -35q-46 0 -79.5 35t-33.5 82z" />
<glyph unicode="&#xcc;" horiz-adv-x="520" d="M18 1714h279l84 -260h-236zM125 0v1393h270v-1393h-270z" />
<glyph unicode="&#xcd;" horiz-adv-x="520" d="M125 0v1393h270v-1393h-270zM141 1454l84 260h279l-127 -260h-236z" />
<glyph unicode="&#xce;" horiz-adv-x="520" d="M23 1454l110 260h256l111 -260h-144l-96 121l-92 -121h-145zM125 0v1393h270v-1393h-270z" />
<glyph unicode="&#xcf;" horiz-adv-x="520" d="M8 1587q0 46 35 79.5t82 33.5q46 0 79.5 -33.5t33.5 -79.5q0 -47 -33.5 -82t-79.5 -35q-47 0 -82 35t-35 82zM125 0v1393h270v-1393h-270zM285 1587q0 46 33 79.5t79 33.5q47 0 82 -33.5t35 -79.5q0 -47 -35 -82t-82 -35q-46 0 -79 35t-33 82z" />
<glyph unicode="&#xd0;" horiz-adv-x="1507" d="M41 602v209h82v582h579q151 0 285.5 -52t232.5 -143.5t155 -222.5t57 -283q0 -200 -96 -359t-262.5 -246t-371.5 -87h-579v602h-82zM393 231h307q193 0 322 132.5t129 332.5q0 199 -129 331t-322 132h-307v-348h312v-209h-312v-371z" />
<glyph unicode="&#xd1;" horiz-adv-x="1472" d="M123 0v1393h246l727 -973h6l-8 973h254v-1393h-244l-727 983h-8l10 -983h-256zM487 1544q29 52 70.5 84.5t85.5 32.5q36 0 117 -28.5t100 -28.5q22 0 43.5 18t36.5 43l55 -94q-27 -52 -68 -87.5t-87 -35.5q-35 0 -114 29.5t-101 29.5q-23 0 -45 -17t-37 -42z" />
<glyph unicode="&#xd2;" horiz-adv-x="1607" d="M74 692q0 202 98 367t264.5 257.5t366.5 92.5q199 0 366 -92.5t266 -257.5t99 -367q0 -150 -57 -282t-155 -225.5t-233 -147t-286 -53.5q-203 0 -369.5 91t-263 254t-96.5 363zM354 696q0 -200 130 -333.5t319 -133.5q190 0 320 133.5t130 333.5q0 199 -130 333t-320 134 q-189 0 -319 -134.5t-130 -332.5zM561 1714h279l84 -260h-236z" />
<glyph unicode="&#xd3;" horiz-adv-x="1607" d="M74 692q0 202 98 367t264.5 257.5t366.5 92.5q199 0 366 -92.5t266 -257.5t99 -367q0 -150 -57 -282t-155 -225.5t-233 -147t-286 -53.5q-203 0 -369.5 91t-263 254t-96.5 363zM354 696q0 -200 130 -333.5t319 -133.5q190 0 320 133.5t130 333.5q0 199 -130 333t-320 134 q-189 0 -319 -134.5t-130 -332.5zM684 1454l84 260h279l-127 -260h-236z" />
<glyph unicode="&#xd4;" horiz-adv-x="1607" d="M74 692q0 202 98 367t264.5 257.5t366.5 92.5q199 0 366 -92.5t266 -257.5t99 -367q0 -150 -57 -282t-155 -225.5t-233 -147t-286 -53.5q-203 0 -369.5 91t-263 254t-96.5 363zM354 696q0 -200 130 -333.5t319 -133.5q190 0 320 133.5t130 333.5q0 199 -130 333t-320 134 q-189 0 -319 -134.5t-130 -332.5zM565 1454l111 260h256l110 -260h-143l-96 121l-92 -121h-146z" />
<glyph unicode="&#xd5;" horiz-adv-x="1607" d="M74 692q0 202 98 367t264.5 257.5t366.5 92.5q199 0 366 -92.5t266 -257.5t99 -367q0 -150 -57 -282t-155 -225.5t-233 -147t-286 -53.5q-203 0 -369.5 91t-263 254t-96.5 363zM354 696q0 -200 130 -333.5t319 -133.5q190 0 320 133.5t130 333.5q0 199 -130 333t-320 134 q-189 0 -319 -134.5t-130 -332.5zM549 1544q29 52 70.5 84.5t85.5 32.5q36 0 117 -28.5t100 -28.5q22 0 43 17.5t36 43.5l56 -94q-27 -52 -68.5 -87.5t-87.5 -35.5q-35 0 -114 29.5t-101 29.5q-23 0 -45 -17t-37 -42z" />
<glyph unicode="&#xd6;" horiz-adv-x="1607" d="M74 692q0 202 98 367t264.5 257.5t366.5 92.5q199 0 366 -92.5t266 -257.5t99 -367q0 -150 -57 -282t-155 -225.5t-233 -147t-286 -53.5q-203 0 -369.5 91t-263 254t-96.5 363zM354 696q0 -200 130 -333.5t319 -133.5q190 0 320 133.5t130 333.5q0 199 -130 333t-320 134 q-189 0 -319 -134.5t-130 -332.5zM551 1587q0 46 35 79.5t82 33.5q46 0 79 -33.5t33 -79.5q0 -47 -33 -82t-79 -35q-47 0 -82 35t-35 82zM827 1587q0 46 33.5 79.5t79.5 33.5q47 0 82 -33.5t35 -79.5q0 -47 -35 -82t-82 -35q-46 0 -79.5 35t-33.5 82z" />
<glyph unicode="&#xd7;" horiz-adv-x="942" d="M74 276l258 259l-258 258l137 139l260 -258l258 258l139 -139l-260 -258l260 -259l-139 -139l-258 258l-260 -258z" />
<glyph unicode="&#xd8;" horiz-adv-x="1607" d="M74 692q0 202 98 367t264.5 257.5t366.5 92.5q146 0 276 -53l58 106h159l-90 -170q152 -98 240 -254.5t88 -345.5q0 -150 -57 -282t-155 -225.5t-233 -147t-286 -53.5q-147 0 -271 47l-55 -105h-164l90 166q-153 94 -241 251t-88 349zM354 696q0 -118 47 -215.5 t131 -161.5l435 814q-73 30 -164 30q-189 0 -319 -134.5t-130 -332.5zM645 258q71 -29 158 -29q190 0 320 133.5t130 333.5q0 113 -47 209.5t-127 161.5z" />
<glyph unicode="&#xd9;" horiz-adv-x="1398" d="M109 618v775h270v-779q0 -173 87 -278t232 -105q147 0 234.5 105t87.5 278v779h268v-775q0 -297 -160.5 -465.5t-429.5 -168.5q-270 0 -429.5 168t-159.5 466zM455 1714h278l84 -260h-235z" />
<glyph unicode="&#xda;" horiz-adv-x="1398" d="M109 618v775h270v-779q0 -173 87 -278t232 -105q147 0 234.5 105t87.5 278v779h268v-775q0 -297 -160.5 -465.5t-429.5 -168.5q-270 0 -429.5 168t-159.5 466zM578 1454l84 260h278l-127 -260h-235z" />
<glyph unicode="&#xdb;" horiz-adv-x="1398" d="M109 618v775h270v-779q0 -173 87 -278t232 -105q147 0 234.5 105t87.5 278v779h268v-775q0 -297 -160.5 -465.5t-429.5 -168.5q-270 0 -429.5 168t-159.5 466zM459 1454l110 260h256l111 -260h-143l-97 121l-92 -121h-145z" />
<glyph unicode="&#xdc;" horiz-adv-x="1398" d="M109 618v775h270v-779q0 -173 87 -278t232 -105q147 0 234.5 105t87.5 278v779h268v-775q0 -297 -160.5 -465.5t-429.5 -168.5q-270 0 -429.5 168t-159.5 466zM444 1587q0 46 35 79.5t82 33.5q46 0 79.5 -33.5t33.5 -79.5q0 -47 -33.5 -82t-79.5 -35q-47 0 -82 35t-35 82 zM721 1587q0 46 33.5 79.5t79.5 33.5q47 0 81.5 -33.5t34.5 -79.5q0 -47 -34.5 -82t-81.5 -35q-46 0 -79.5 35t-33.5 82z" />
<glyph unicode="&#xdd;" horiz-adv-x="1232" d="M-10 1393h284l344 -609l353 609h272l-471 -830q-22 -40 -22 -94v-469h-271v469q0 54 -22 94zM502 1454l84 260h278l-127 -260h-235z" />
<glyph unicode="&#xde;" horiz-adv-x="1284" d="M125 0v1393h270v-236h357q231 0 364 -108t133 -310q0 -205 -142 -321.5t-366 -116.5h-346v-301h-270zM395 522h340q107 0 173.5 60t66.5 155q0 87 -66 140t-172 53h-342v-408z" />
<glyph unicode="&#xdf;" horiz-adv-x="1124" d="M104 0v981q0 204 126.5 316t357.5 112q120 0 213 -30.5t148 -83.5t82.5 -119t27.5 -142q0 -221 -236 -309q119 -42 184.5 -121.5t65.5 -191.5q0 -171 -137.5 -291.5t-349.5 -120.5h-133v225h116q115 0 183.5 54.5t68.5 142.5q0 77 -59.5 131.5t-188.5 54.5h-118v213h118 q119 0 176.5 52.5t57.5 138.5q0 174 -217 174q-112 0 -168.5 -48.5t-56.5 -138.5v-999h-261z" />
<glyph unicode="&#xe0;" horiz-adv-x="1224" d="M51 512q0 148 66.5 270t181 191t252.5 69q193 0 317 -147v129h252v-1024h-252v133q-123 -149 -323 -149q-211 0 -352.5 150.5t-141.5 377.5zM309 512q0 -125 81 -209t198 -84t197.5 83t80.5 210t-80.5 210t-197.5 83t-198 -83.5t-81 -209.5zM369 1393h278l84 -260h-235z " />
<glyph unicode="&#xe1;" horiz-adv-x="1224" d="M51 512q0 148 66.5 270t181 191t252.5 69q193 0 317 -147v129h252v-1024h-252v133q-123 -149 -323 -149q-211 0 -352.5 150.5t-141.5 377.5zM309 512q0 -125 81 -209t198 -84t197.5 83t80.5 210t-80.5 210t-197.5 83t-198 -83.5t-81 -209.5zM492 1133l83 260h279 l-127 -260h-235z" />
<glyph unicode="&#xe2;" horiz-adv-x="1224" d="M51 512q0 148 66.5 270t181 191t252.5 69q193 0 317 -147v129h252v-1024h-252v133q-123 -149 -323 -149q-211 0 -352.5 150.5t-141.5 377.5zM309 512q0 -125 81 -209t198 -84t197.5 83t80.5 210t-80.5 210t-197.5 83t-198 -83.5t-81 -209.5zM373 1133l110 260h256 l111 -260h-143l-97 120l-92 -120h-145z" />
<glyph unicode="&#xe3;" horiz-adv-x="1224" d="M51 512q0 148 66.5 270t181 191t252.5 69q193 0 317 -147v129h252v-1024h-252v133q-123 -149 -323 -149q-211 0 -352.5 150.5t-141.5 377.5zM309 512q0 -125 81 -209t198 -84t197.5 83t80.5 210t-80.5 210t-197.5 83t-198 -83.5t-81 -209.5zM356 1223q29 52 70.5 84 t85.5 32q36 0 117 -28.5t100 -28.5q22 0 43.5 18t36.5 43l55 -94q-27 -52 -68 -87.5t-87 -35.5q-35 0 -114 30t-101 30q-47 0 -82 -60z" />
<glyph unicode="&#xe4;" horiz-adv-x="1224" d="M51 512q0 148 66.5 270t181 191t252.5 69q193 0 317 -147v129h252v-1024h-252v133q-123 -149 -323 -149q-211 0 -352.5 150.5t-141.5 377.5zM309 512q0 -125 81 -209t198 -84t197.5 83t80.5 210t-80.5 210t-197.5 83t-198 -83.5t-81 -209.5zM358 1266q0 46 35 79t82 33 q46 0 79.5 -33t33.5 -79q0 -47 -33.5 -82t-79.5 -35q-47 0 -82 35t-35 82zM635 1266q0 46 33.5 79t79.5 33q47 0 81.5 -33t34.5 -79q0 -47 -34.5 -82t-81.5 -35q-46 0 -79.5 35t-33.5 82z" />
<glyph unicode="&#xe5;" horiz-adv-x="1224" d="M51 512q0 148 66.5 270t181 191t252.5 69q193 0 317 -147v129h252v-1024h-252v133q-123 -149 -323 -149q-211 0 -352.5 150.5t-141.5 377.5zM309 512q0 -125 81 -209t198 -84t197.5 83t80.5 210t-80.5 210t-197.5 83t-198 -83.5t-81 -209.5zM436 1296q0 72 51 124.5 t123 52.5q74 0 126 -52t52 -125q0 -74 -51.5 -125t-126.5 -51q-72 0 -123 51.5t-51 124.5zM541 1296q0 -32 19.5 -52.5t49.5 -20.5q31 0 52.5 20.5t21.5 52.5q0 29 -21.5 50.5t-52.5 21.5q-29 0 -49 -21t-20 -51z" />
<glyph unicode="&#xe6;" horiz-adv-x="1800" d="M63 283q0 167 98.5 246t301.5 79h252v90q0 65 -46 98t-149 33q-171 0 -180 -120h-248q9 331 434 331q257 0 353 -135q134 137 344 137q228 0 377 -150.5t149 -381.5q0 -36 -6 -66h-785q13 -111 86 -174t179 -63q80 0 141.5 35t99.5 98h265q-46 -164 -183.5 -260 t-328.5 -96q-250 0 -383 172q-23 -31 -40 -50.5t-51 -45.5t-72.5 -40.5t-100 -25t-138.5 -10.5q-172 0 -270.5 74t-98.5 225zM324 303q0 -121 180 -121q104 0 156.5 45.5t52.5 120.5v82h-193q-104 0 -150 -31.5t-46 -95.5zM961 604h512q-13 98 -84.5 155.5t-169.5 57.5 q-97 0 -167.5 -56.5t-90.5 -156.5z" />
<glyph unicode="&#xe7;" horiz-adv-x="1140" d="M51 512q0 111 41.5 209.5t112.5 168.5t170 111t211 41q190 0 330.5 -109t183.5 -284h-266q-36 70 -102.5 112t-143.5 42q-115 0 -197 -84t-82 -207t82 -207t197 -84q81 0 147.5 43t100.5 117h266q-42 -178 -183.5 -287.5t-336.5 -109.5q-227 0 -379 151t-152 377z M444 -57h199q129 -94 129 -187q0 -54 -45.5 -93.5t-151.5 -39.5q-57 0 -131 19v120q60 -6 64 -6q55 0 55 41q0 29 -33.5 69.5t-85.5 76.5z" />
<glyph unicode="&#xe8;" horiz-adv-x="1161" d="M51 510q0 152 69.5 274t191.5 190t272 68q228 0 377 -150.5t149 -381.5q0 -36 -6 -66h-785q13 -111 86 -174t179 -63q80 0 141.5 35t99.5 98h265q-46 -164 -183.5 -260t-328.5 -96q-232 0 -379.5 147t-147.5 379zM322 604h512q-13 98 -84.5 155.5t-169.5 57.5 q-97 0 -167.5 -56.5t-90.5 -156.5zM342 1393h279l84 -260h-236z" />
<glyph unicode="&#xe9;" horiz-adv-x="1161" d="M51 510q0 152 69.5 274t191.5 190t272 68q228 0 377 -150.5t149 -381.5q0 -36 -6 -66h-785q13 -111 86 -174t179 -63q80 0 141.5 35t99.5 98h265q-46 -164 -183.5 -260t-328.5 -96q-232 0 -379.5 147t-147.5 379zM322 604h512q-13 98 -84.5 155.5t-169.5 57.5 q-97 0 -167.5 -56.5t-90.5 -156.5zM465 1133l84 260h278l-127 -260h-235z" />
<glyph unicode="&#xea;" horiz-adv-x="1161" d="M51 510q0 152 69.5 274t191.5 190t272 68q228 0 377 -150.5t149 -381.5q0 -36 -6 -66h-785q13 -111 86 -174t179 -63q80 0 141.5 35t99.5 98h265q-46 -164 -183.5 -260t-328.5 -96q-232 0 -379.5 147t-147.5 379zM322 604h512q-13 98 -84.5 155.5t-169.5 57.5 q-97 0 -167.5 -56.5t-90.5 -156.5zM346 1133l111 260h256l110 -260h-143l-96 120l-92 -120h-146z" />
<glyph unicode="&#xeb;" horiz-adv-x="1161" d="M51 510q0 152 69.5 274t191.5 190t272 68q228 0 377 -150.5t149 -381.5q0 -36 -6 -66h-785q13 -111 86 -174t179 -63q80 0 141.5 35t99.5 98h265q-46 -164 -183.5 -260t-328.5 -96q-232 0 -379.5 147t-147.5 379zM322 604h512q-13 98 -84.5 155.5t-169.5 57.5 q-97 0 -167.5 -56.5t-90.5 -156.5zM332 1266q0 46 35 79t82 33q46 0 79 -33t33 -79q0 -47 -33 -82t-79 -35q-47 0 -82 35t-35 82zM608 1266q0 46 33.5 79t79.5 33q47 0 82 -33t35 -79q0 -47 -35 -82t-82 -35q-46 0 -79.5 35t-33.5 82z" />
<glyph unicode="&#xec;" horiz-adv-x="477" d="M-4 1393h278l84 -260h-235zM106 0v1024h259v-1024h-259z" />
<glyph unicode="&#xed;" horiz-adv-x="477" d="M106 0v1024h259v-1024h-259zM119 1133l84 260h278l-127 -260h-235z" />
<glyph unicode="&#xee;" horiz-adv-x="477" d="M0 1133l111 260h256l110 -260h-143l-96 120l-93 -120h-145zM109 0v1024h258v-1024h-258z" />
<glyph unicode="&#xef;" horiz-adv-x="477" d="M-14 1266q0 46 34.5 79t81.5 33q46 0 79.5 -33t33.5 -79q0 -47 -33.5 -82t-79.5 -35q-47 0 -81.5 35t-34.5 82zM106 0v1024h259v-1024h-259zM262 1266q0 46 33.5 79t79.5 33q47 0 82 -33t35 -79q0 -47 -35 -82t-82 -35q-46 0 -79.5 35t-33.5 82z" />
<glyph unicode="&#xf0;" d="M51 512q0 225 149 370.5t378 145.5q36 0 94 -10q-20 22 -57.5 66t-57.5 65l-172 -68l-51 131l127 50q-88 88 -129 131h301q26 -30 51 -52l139 56l54 -129l-93 -37q340 -381 340 -703q0 -240 -153 -392t-383 -152q-113 0 -212.5 40.5t-170.5 110.5t-112.5 168t-41.5 209z M309 512q0 -123 82 -207t197 -84t195.5 83.5t80.5 207.5t-80.5 207.5t-195.5 83.5t-197 -84t-82 -207z" />
<glyph unicode="&#xf1;" horiz-adv-x="1095" d="M104 0v1024h252v-129q35 57 108 102t177 45q163 0 255.5 -96.5t92.5 -261.5v-684h-258v637q0 82 -49.5 128t-128.5 46q-81 0 -134.5 -47.5t-53.5 -124.5v-639h-261zM301 1223q29 52 70.5 84t85.5 32q36 0 117 -28.5t100 -28.5q22 0 43.5 18t36.5 43l55 -94 q-27 -52 -68.5 -87.5t-87.5 -35.5q-35 0 -114 30t-101 30q-47 0 -82 -60z" />
<glyph unicode="&#xf2;" d="M51 512q0 148 70 269.5t193.5 191t273.5 69.5q149 0 272 -69t193.5 -191t70.5 -270q0 -225 -154 -376.5t-382 -151.5q-113 0 -212.5 40.5t-170.5 110.5t-112.5 168t-41.5 209zM309 512q0 -123 82 -207t197 -84t195.5 83.5t80.5 207.5t-80.5 207.5t-195.5 83.5t-197 -84 t-82 -207zM342 1393h279l84 -260h-236z" />
<glyph unicode="&#xf3;" d="M51 512q0 148 70 269.5t193.5 191t273.5 69.5q149 0 272 -69t193.5 -191t70.5 -270q0 -225 -154 -376.5t-382 -151.5q-113 0 -212.5 40.5t-170.5 110.5t-112.5 168t-41.5 209zM309 512q0 -123 82 -207t197 -84t195.5 83.5t80.5 207.5t-80.5 207.5t-195.5 83.5t-197 -84 t-82 -207zM465 1133l84 260h278l-127 -260h-235z" />
<glyph unicode="&#xf4;" d="M51 512q0 148 70 269.5t193.5 191t273.5 69.5q149 0 272 -69t193.5 -191t70.5 -270q0 -225 -154 -376.5t-382 -151.5q-113 0 -212.5 40.5t-170.5 110.5t-112.5 168t-41.5 209zM309 512q0 -123 82 -207t197 -84t195.5 83.5t80.5 207.5t-80.5 207.5t-195.5 83.5t-197 -84 t-82 -207zM346 1133l111 260h256l110 -260h-143l-96 120l-92 -120h-146z" />
<glyph unicode="&#xf5;" d="M51 512q0 148 70 269.5t193.5 191t273.5 69.5q149 0 272 -69t193.5 -191t70.5 -270q0 -225 -154 -376.5t-382 -151.5q-113 0 -212.5 40.5t-170.5 110.5t-112.5 168t-41.5 209zM309 512q0 -123 82 -207t197 -84t195.5 83.5t80.5 207.5t-80.5 207.5t-195.5 83.5t-197 -84 t-82 -207zM330 1223q29 52 70 84t85 32q36 0 117 -28.5t100 -28.5q22 0 43.5 18t36.5 43l56 -94q-27 -52 -68.5 -87.5t-87.5 -35.5q-35 0 -114 30t-101 30q-47 0 -82 -60z" />
<glyph unicode="&#xf6;" d="M51 512q0 148 70 269.5t193.5 191t273.5 69.5q149 0 272 -69t193.5 -191t70.5 -270q0 -225 -154 -376.5t-382 -151.5q-113 0 -212.5 40.5t-170.5 110.5t-112.5 168t-41.5 209zM309 512q0 -123 82 -207t197 -84t195.5 83.5t80.5 207.5t-80.5 207.5t-195.5 83.5t-197 -84 t-82 -207zM332 1266q0 46 35 79t82 33q46 0 79 -33t33 -79q0 -47 -33 -82t-79 -35q-47 0 -82 35t-35 82zM608 1266q0 46 33.5 79t79.5 33q47 0 82 -33t35 -79q0 -47 -35 -82t-82 -35q-46 0 -79.5 35t-33.5 82z" />
<glyph unicode="&#xf7;" horiz-adv-x="942" d="M96 436v197h750v-197h-750zM336 150q0 57 39 97t94 40q57 0 96 -40t39 -97q0 -54 -39 -93t-96 -39q-55 0 -94 39t-39 93zM336 920q0 56 39 95.5t94 39.5q57 0 96 -39.5t39 -95.5t-39 -95t-96 -39q-55 0 -94 39t-39 95z" />
<glyph unicode="&#xf8;" d="M51 512q0 148 70 269.5t193.5 191t273.5 69.5q111 0 196 -36l43 77h142l-74 -135q107 -72 168 -185.5t61 -250.5q0 -225 -154 -376.5t-382 -151.5q-103 0 -197 32l-49 -90h-143l77 148q-105 72 -165 186.5t-60 251.5zM309 512q0 -138 99 -221l264 497q-51 15 -84 15 q-115 0 -197 -84t-82 -207zM502 236q40 -15 86 -15q115 0 195.5 83.5t80.5 207.5q0 134 -98 219z" />
<glyph unicode="&#xf9;" horiz-adv-x="1095" d="M104 338v686h261v-645q0 -82 48.5 -127t127.5 -45q81 0 135.5 46.5t54.5 121.5v649h258v-1024h-252v127q-32 -56 -104.5 -99.5t-177.5 -43.5q-165 0 -258 94.5t-93 259.5zM309 1393h279l84 -260h-236z" />
<glyph unicode="&#xfa;" horiz-adv-x="1095" d="M104 338v686h261v-645q0 -82 48.5 -127t127.5 -45q81 0 135.5 46.5t54.5 121.5v649h258v-1024h-252v127q-32 -56 -104.5 -99.5t-177.5 -43.5q-165 0 -258 94.5t-93 259.5zM432 1133l84 260h279l-127 -260h-236z" />
<glyph unicode="&#xfb;" horiz-adv-x="1095" d="M104 338v686h261v-645q0 -82 48.5 -127t127.5 -45q81 0 135.5 46.5t54.5 121.5v649h258v-1024h-252v127q-32 -56 -104.5 -99.5t-177.5 -43.5q-165 0 -258 94.5t-93 259.5zM313 1133l111 260h256l111 -260h-144l-96 120l-92 -120h-146z" />
<glyph unicode="&#xfc;" horiz-adv-x="1095" d="M104 338v686h261v-645q0 -82 48.5 -127t127.5 -45q81 0 135.5 46.5t54.5 121.5v649h258v-1024h-252v127q-32 -56 -104.5 -99.5t-177.5 -43.5q-165 0 -258 94.5t-93 259.5zM299 1266q0 46 35 79t82 33q46 0 79 -33t33 -79q0 -47 -33 -82t-79 -35q-47 0 -82 35t-35 82z M575 1266q0 46 33.5 79t79.5 33q47 0 82 -33t35 -79q0 -47 -35 -82t-82 -35q-46 0 -79.5 35t-33.5 82z" />
<glyph unicode="&#xfd;" horiz-adv-x="1048" d="M-8 1024h266l272 -709l265 709h258l-381 -961q-79 -200 -108 -255q-57 -107 -136 -147q-77 -38 -213 -38h-76v225h84q58 0 101 34t57 108q7 38 -8 80zM406 1133l83 260h279l-127 -260h-235z" />
<glyph unicode="&#xfe;" horiz-adv-x="1224" d="M104 -377v1770h261v-494q123 143 315 143q136 0 249.5 -68.5t179 -190t65.5 -269.5t-66.5 -270t-181 -191t-252.5 -69q-191 0 -309 137v-498h-261zM358 512q0 -125 81 -209t198 -84q116 0 197 84.5t81 208.5t-81 208.5t-197 84.5q-117 0 -198 -83.5t-81 -209.5z" />
<glyph unicode="&#xff;" horiz-adv-x="1048" d="M-8 1024h266l272 -709l265 709h258l-381 -961q-79 -200 -108 -255q-57 -107 -136 -147q-77 -38 -213 -38h-76v225h84q58 0 101 34t57 108q7 38 -8 80zM272 1266q0 46 35 79t82 33q46 0 79.5 -33t33.5 -79q0 -47 -33.5 -82t-79.5 -35q-47 0 -82 35t-35 82zM549 1266 q0 46 33.5 79t79.5 33q47 0 81.5 -33t34.5 -79q0 -47 -34.5 -82t-81.5 -35q-46 0 -79.5 35t-33.5 82z" />
<glyph unicode="&#x152;" horiz-adv-x="2314" d="M74 692q0 202 98 367t264.5 257.5t366.5 92.5q275 0 452 -180v164h1026v-234h-759v-340h551v-231h-551v-355h759v-233h-1026v158q-174 -174 -452 -174q-203 0 -369.5 91t-263 254t-96.5 363zM354 696q0 -200 130 -333.5t319 -133.5q190 0 320 133.5t130 333.5 q0 199 -130 333t-320 134q-189 0 -319 -134.5t-130 -332.5z" />
<glyph unicode="&#x153;" horiz-adv-x="1939" d="M51 512q0 148 70 269.5t193.5 191t273.5 69.5q129 0 231.5 -55t165.5 -151q61 97 163 151.5t234 54.5q227 0 376 -151t149 -381q0 -26 -4 -66h-787q13 -111 86.5 -174t179.5 -63q161 0 240 133h266q-46 -164 -184 -260t-330 -96q-134 0 -233.5 52t-157.5 148 q-63 -94 -164.5 -147t-230.5 -53q-113 0 -212.5 40.5t-170.5 110.5t-112.5 168t-41.5 209zM309 512q0 -123 82 -207t197 -84t195.5 83.5t80.5 207.5t-80.5 207.5t-195.5 83.5t-197 -84t-82 -207zM1118 604h514q-15 98 -86 155.5t-168 57.5q-98 0 -168.5 -56.5t-91.5 -156.5z " />
<glyph unicode="&#x178;" horiz-adv-x="1232" d="M-10 1393h284l344 -609l353 609h272l-471 -830q-22 -40 -22 -94v-469h-271v469q0 54 -22 94zM369 1587q0 46 34.5 79.5t81.5 33.5q46 0 79.5 -33.5t33.5 -79.5q0 -47 -33.5 -82t-79.5 -35q-47 0 -81.5 35t-34.5 82zM645 1587q0 46 33.5 79.5t79.5 33.5q47 0 81.5 -33.5 t34.5 -79.5q0 -47 -34.5 -82t-81.5 -35q-46 0 -79.5 35t-33.5 82z" />
<glyph unicode="&#x2c6;" horiz-adv-x="477" d="M0 1133l111 260h256l110 -260h-143l-96 120l-93 -120h-145z" />
<glyph unicode="&#x2dc;" horiz-adv-x="477" d="M-16 1223q29 52 70 84t85 32q36 0 117 -28.5t100 -28.5q22 0 43.5 18t36.5 43l56 -94q-27 -52 -68.5 -87.5t-87.5 -35.5q-35 0 -114 30t-101 30q-47 0 -82 -60z" />
<glyph unicode="&#x2000;" horiz-adv-x="897" />
<glyph unicode="&#x2001;" horiz-adv-x="1794" />
<glyph unicode="&#x2002;" horiz-adv-x="897" />
<glyph unicode="&#x2003;" horiz-adv-x="1794" />
<glyph unicode="&#x2004;" horiz-adv-x="598" />
<glyph unicode="&#x2005;" horiz-adv-x="448" />
<glyph unicode="&#x2006;" horiz-adv-x="299" />
<glyph unicode="&#x2007;" horiz-adv-x="299" />
<glyph unicode="&#x2008;" horiz-adv-x="224" />
<glyph unicode="&#x2009;" horiz-adv-x="358" />
<glyph unicode="&#x200a;" horiz-adv-x="99" />
<glyph unicode="&#x2010;" horiz-adv-x="671" d="M68 436v195h538v-195h-538z" />
<glyph unicode="&#x2011;" horiz-adv-x="671" d="M68 436v195h538v-195h-538z" />
<glyph unicode="&#x2012;" horiz-adv-x="671" d="M68 436v195h538v-195h-538z" />
<glyph unicode="&#x2013;" horiz-adv-x="1024" d="M86 436v195h852v-195h-852z" />
<glyph unicode="&#x2014;" horiz-adv-x="2048" d="M86 436v195h1876v-195h-1876z" />
<glyph unicode="&#x2018;" horiz-adv-x="364" d="M10 926l148 467h188l-78 -467h-258z" />
<glyph unicode="&#x2019;" horiz-adv-x="364" d="M18 926l78 467h258l-147 -467h-189z" />
<glyph unicode="&#x201a;" horiz-adv-x="364" d="M14 -223l80 467h258l-147 -467h-191z" />
<glyph unicode="&#x201c;" horiz-adv-x="714" d="M10 926l148 467h188l-78 -467h-258zM358 926l148 467h188l-78 -467h-258z" />
<glyph unicode="&#x201d;" horiz-adv-x="714" d="M18 926l78 467h258l-147 -467h-189zM367 926l77 467h258l-147 -467h-188z" />
<glyph unicode="&#x201e;" horiz-adv-x="714" d="M14 -223l80 467h258l-147 -467h-191zM362 -223l80 467h258l-147 -467h-191z" />
<glyph unicode="&#x2022;" horiz-adv-x="724" d="M68 717q0 123 85.5 209t208.5 86t209 -86t86 -209t-86 -209t-209 -86t-208.5 86t-85.5 209z" />
<glyph unicode="&#x2026;" horiz-adv-x="1243" d="M53 137q0 65 44.5 111.5t107.5 46.5q64 0 109.5 -46.5t45.5 -111.5q0 -62 -45.5 -106.5t-109.5 -44.5q-63 0 -107.5 44.5t-44.5 106.5zM467 137q0 65 44 111.5t107 46.5q64 0 110 -46.5t46 -111.5q0 -62 -46 -106.5t-110 -44.5q-63 0 -107 44.5t-44 106.5zM883 137 q0 65 44 111.5t107 46.5q64 0 110 -46.5t46 -111.5q0 -62 -46 -106.5t-110 -44.5q-63 0 -107 44.5t-44 106.5z" />
<glyph unicode="&#x202f;" horiz-adv-x="358" />
<glyph unicode="&#x2039;" horiz-adv-x="450" d="M29 551l164 367h221l-158 -363l154 -375h-220z" />
<glyph unicode="&#x203a;" horiz-adv-x="450" d="M35 918h223l162 -367l-160 -371h-221l156 375z" />
<glyph unicode="&#x205f;" horiz-adv-x="448" />
<glyph unicode="&#x20ac;" horiz-adv-x="1587" d="M37 498v164h108v30q0 38 2 58h-110v163h141q71 221 263 358.5t436 137.5q230 0 413.5 -121.5t263.5 -324.5h-303q-61 97 -158.5 151.5t-215.5 54.5q-135 0 -243 -69.5t-163 -186.5h584v-163h-633q0 -9 -1 -27.5t-1 -26.5q0 -24 2 -34h633v-164h-592q51 -126 162.5 -200.5 t251.5 -74.5q120 0 219.5 56.5t160.5 154.5h302q-77 -205 -263.5 -327.5t-423.5 -122.5q-255 0 -447 142t-255 372h-133z" />
<glyph unicode="&#x2122;" horiz-adv-x="980" d="M39 1286v107h362v-107h-122v-356h-119v356h-121zM453 930v463h116l111 -187l108 187h111v-463h-117v272l-106 -168l-105 168v-272h-118z" />
<glyph unicode="&#x25fc;" horiz-adv-x="1024" d="M0 0v1024h1024v-1024h-1024z" />
</font>
</defs>
</svg>
